<svg width="26" height="23" viewBox="0 0 26 23" fill="none" xmlns="http://www.w3.org/2000/svg">
<path d="M24.2355 15.9848H7.95234L8.76991 14.3862L22.3543 14.3626C22.8137 14.3626 23.2074 14.0476 23.2894 13.6118L25.1707 3.50297C25.2199 3.23785 25.1461 2.96485 24.9656 2.75747C24.8764 2.65541 24.7652 2.5732 24.6396 2.51654C24.514 2.45988 24.377 2.43013 24.2383 2.42935L6.95702 2.37422L6.80937 1.70747C6.7164 1.28222 6.31718 0.972473 5.86327 0.972473H1.63867C1.38267 0.972473 1.13716 1.0701 0.956142 1.24388C0.775125 1.41765 0.673431 1.65334 0.673431 1.8991C0.673431 2.14485 0.775125 2.38054 0.956142 2.55432C1.13716 2.7281 1.38267 2.82572 1.63867 2.82572H5.08124L5.72656 5.77097L7.31523 13.1551L5.26992 16.3602C5.1637 16.4978 5.09972 16.6613 5.08523 16.832C5.07073 17.0027 5.10629 17.1739 5.18788 17.3262C5.35195 17.6386 5.68281 17.8355 6.04921 17.8355H7.7664C7.40032 18.3023 7.20258 18.8708 7.20312 19.4551C7.20312 20.9408 8.46093 22.1483 10.0086 22.1483C11.5562 22.1483 12.8141 20.9408 12.8141 19.4551C12.8141 18.8697 12.6117 18.3001 12.2508 17.8355H16.6559C16.2898 18.3023 16.092 18.8708 16.0926 19.4551C16.0926 20.9408 17.3504 22.1483 18.898 22.1483C20.4457 22.1483 21.7035 20.9408 21.7035 19.4551C21.7035 18.8697 21.5012 18.3001 21.1402 17.8355H24.2383C24.7687 17.8355 25.2035 17.4207 25.2035 16.9088C25.2019 16.6633 25.0993 16.4284 24.9179 16.2553C24.7366 16.0822 24.4913 15.985 24.2355 15.9848V15.9848ZM7.35898 4.20122L23.1035 4.2511L21.5613 12.5408L9.19374 12.5618L7.35898 4.20122ZM10.0086 20.2846C9.53281 20.2846 9.14452 19.9118 9.14452 19.4551C9.14452 18.9983 9.53281 18.6256 10.0086 18.6256C10.4844 18.6256 10.8726 18.9983 10.8726 19.4551C10.8726 19.6751 10.7816 19.8861 10.6196 20.0416C10.4575 20.1972 10.2378 20.2846 10.0086 20.2846V20.2846ZM18.898 20.2846C18.4223 20.2846 18.034 19.9118 18.034 19.4551C18.034 18.9983 18.4223 18.6256 18.898 18.6256C19.3738 18.6256 19.7621 18.9983 19.7621 19.4551C19.7621 19.6751 19.6711 19.8861 19.509 20.0416C19.347 20.1972 19.1272 20.2846 18.898 20.2846V20.2846Z" fill="black"/>
</svg>
