<svg width="24" height="19" viewBox="0 0 24 19" fill="none" xmlns="http://www.w3.org/2000/svg">
<path d="M21 9.31999V3.71999H23.3333V10.44H21M21 14.92H23.3333V12.68H21M9.33333 10.44C12.4483 10.44 18.6667 11.9408 18.6667 14.92V18.28H0V14.92C0 11.9408 6.21833 10.44 9.33333 10.44ZM9.33333 0.359985C10.571 0.359985 11.758 0.831984 12.6332 1.67215C13.5083 2.51231 14 3.65182 14 4.83999C14 6.02816 13.5083 7.16766 12.6332 8.00782C11.758 8.84799 10.571 9.31999 9.33333 9.31999C8.09566 9.31999 6.90867 8.84799 6.0335 8.00782C5.15833 7.16766 4.66667 6.02816 4.66667 4.83999C4.66667 3.65182 5.15833 2.51231 6.0335 1.67215C6.90867 0.831984 8.09566 0.359985 9.33333 0.359985ZM9.33333 12.568C5.86833 12.568 2.21667 14.2032 2.21667 14.92V16.152H16.45V14.92C16.45 14.2032 12.7983 12.568 9.33333 12.568ZM9.33333 2.48799C8.68355 2.48799 8.06039 2.73578 7.60092 3.17687C7.14146 3.61796 6.88333 4.2162 6.88333 4.83999C6.88333 5.46377 7.14146 6.06202 7.60092 6.5031C8.06039 6.94419 8.68355 7.19199 9.33333 7.19199C9.98311 7.19199 10.6063 6.94419 11.0657 6.5031C11.5252 6.06202 11.7833 5.46377 11.7833 4.83999C11.7833 4.2162 11.5252 3.61796 11.0657 3.17687C10.6063 2.73578 9.98311 2.48799 9.33333 2.48799Z" fill="black"/>
</svg>
